<?xml version="1.0" standalone="no"?>
<!DOCTYPE svg PUBLIC "-//W3C//DTD SVG 20010904//EN"
 "http://www.w3.org/TR/2001/REC-SVG-20010904/DTD/svg10.dtd">
<svg version="1.0" xmlns="http://www.w3.org/2000/svg"
 width="595.000000pt" height="521.000000pt" viewBox="0 0 595.000000 521.000000"
 preserveAspectRatio="xMidYMid meet">

<g transform="translate(0.000000,521.000000) scale(0.100000,-0.100000)"
fill="#000000" stroke="none">
<path d="M3464 5130 c-170 -19 -310 -85 -430 -204 -66 -66 -89 -97 -122 -166
-54 -115 -67 -174 -66 -310 1 -172 45 -303 143 -427 249 -312 826 -339 1113
-52 27 27 48 54 46 59 -2 7 -198 186 -251 229 -15 11 -23 7 -69 -34 -77 -69
-145 -97 -238 -97 -56 -1 -88 5 -128 22 -231 99 -241 485 -15 600 41 21 62 25
143 25 85 0 101 -3 148 -28 30 -16 74 -48 98 -72 l44 -44 135 121 c74 66 135
124 135 128 0 4 -31 37 -69 73 -146 137 -376 203 -617 177z"/>
<path d="M287 5103 c-4 -3 -7 -298 -7 -655 l0 -648 515 0 515 0 0 170 0 170
-295 0 -295 0 0 485 0 485 -213 0 c-118 0 -217 -3 -220 -7z"/>
<path d="M1420 4698 c0 -463 4 -501 66 -627 101 -204 326 -314 614 -297 128 7
203 25 297 72 128 64 228 192 271 347 15 54 17 116 17 487 l0 425 -212 3 -212
2 -4 -407 c-3 -435 -6 -456 -54 -513 -37 -44 -78 -62 -143 -63 -96 -1 -161 47
-192 142 -7 24 -13 166 -15 436 l-4 400 -214 3 -215 2 0 -412z"/>
<path d="M4686 5083 c-21 -42 -556 -1270 -556 -1277 0 -4 100 -5 221 -4 l222
3 42 110 43 110 249 3 250 2 44 -115 43 -115 229 0 c125 0 226 3 224 8 -3 4
-130 293 -282 642 -153 349 -282 641 -287 648 -8 9 -64 12 -219 12 l-208 0
-15 -27z m288 -575 c31 -81 56 -152 56 -158 0 -6 -45 -10 -126 -10 -116 0
-126 1 -120 18 59 158 122 310 127 304 3 -4 32 -73 63 -154z"/>
<path d="M824 3590 c-337 -42 -577 -274 -613 -591 -43 -389 195 -695 592 -759
191 -31 469 21 643 121 l54 30 0 280 0 279 -187 -2 -188 -3 -3 -167 -2 -166
-53 -13 c-128 -32 -251 -6 -327 71 -64 63 -90 134 -90 245 0 105 25 177 81
235 65 66 116 85 234 85 90 0 106 -3 155 -28 30 -16 74 -47 97 -69 l41 -40
141 123 142 124 -69 65 c-118 112 -279 174 -482 184 -52 2 -127 1 -166 -4z"/>
<path d="M1870 2915 l0 -655 215 0 215 0 2 163 3 162 62 0 63 0 107 -160 108
-160 233 -3 c127 -1 232 0 232 3 0 2 -58 91 -130 196 -72 105 -130 194 -130
198 0 4 23 22 51 40 215 140 254 485 76 687 -81 92 -219 156 -375 174 -48 5
-232 10 -409 10 l-323 0 0 -655z m708 290 c37 -22 72 -87 72 -131 -1 -48 -35
-111 -72 -131 -26 -14 -57 -18 -153 -18 l-120 0 -3 140 c-1 76 0 145 3 153 9
23 230 13 273 -13z"/>
<path d="M3430 3568 c0 -2 -1 -297 -3 -656 l-2 -652 223 0 222 0 0 655 0 655
-220 0 c-121 0 -220 -1 -220 -2z"/>
<path d="M4260 2914 l0 -655 403 3 c449 5 478 8 631 82 165 81 290 237 327
411 18 85 16 256 -4 335 -55 210 -218 373 -442 439 -112 33 -228 41 -582 41
l-333 0 0 -656z m776 276 c110 -54 156 -135 155 -277 -1 -86 -10 -128 -40
-176 -30 -48 -70 -83 -126 -109 -44 -20 -66 -22 -185 -23 -74 0 -136 3 -137 8
-2 4 -3 145 -3 313 l0 307 136 -6 c127 -5 141 -8 200 -37z"/>
<path d="M3417 2049 c-356 -46 -607 -324 -607 -674 0 -317 192 -567 505 -657
67 -19 103 -23 225 -22 165 0 250 18 368 78 101 52 228 166 206 185 -5 5 -54
48 -109 96 -55 49 -112 100 -127 113 l-27 25 -51 -46 c-144 -130 -328 -137
-453 -18 -128 121 -129 361 -2 488 66 65 133 88 239 81 86 -6 139 -31 211 -99
l52 -49 114 101 c63 56 125 112 139 125 l24 24 -49 50 c-104 107 -236 170
-403 195 -106 16 -152 17 -255 4z"/>
<path d="M120 1860 l0 -170 190 0 190 0 2 -482 3 -483 217 -3 218 -2 2 482 3
483 193 3 192 2 -2 168 -3 167 -602 3 -603 2 0 -170z"/>
<path d="M1527 2023 c-4 -3 -7 -298 -7 -655 l0 -648 545 0 545 0 0 165 0 165
-327 2 -328 3 0 85 0 85 278 3 277 2 0 155 0 155 -280 0 -281 0 3 78 3 77 313
3 312 2 0 165 0 165 -523 0 c-288 0 -527 -3 -530 -7z"/>
<path d="M4337 2023 c-4 -3 -7 -298 -7 -655 l0 -648 220 0 220 0 0 240 0 240
205 0 205 0 0 -240 0 -240 220 0 220 0 0 655 0 655 -220 0 -220 0 0 -235 0
-235 -205 0 -205 0 0 235 0 235 -213 0 c-118 0 -217 -3 -220 -7z"/>
<path d="M2580 440 l0 -70 -37 20 c-64 34 -127 21 -172 -36 -29 -37 -29 -121
0 -158 44 -56 108 -70 172 -37 36 18 37 18 37 0 0 -12 7 -19 20 -19 19 0 20 7
20 185 0 178 -1 185 -20 185 -18 0 -20 -7 -20 -70z m-50 -85 c37 -19 55 -69
39 -113 -24 -69 -122 -81 -159 -19 -24 39 -25 59 -4 98 24 47 73 60 124 34z"/>
<path d="M350 315 l0 -177 108 4 c122 4 155 17 199 75 24 31 28 46 28 98 0 52
-4 67 -28 98 -44 58 -77 71 -199 75 l-108 4 0 -177z m203 121 c57 -24 82 -61
82 -121 0 -43 -5 -59 -25 -80 -35 -39 -80 -55 -150 -55 l-60 0 0 135 0 135 60
0 c33 0 75 -6 93 -14z"/>
<path d="M2990 315 l0 -175 24 0 c23 0 25 4 28 53 l3 52 56 3 55 3 38 -56 c28
-41 45 -55 62 -55 13 0 24 2 24 5 0 3 -18 30 -39 59 l-40 53 26 14 c53 29 70
115 31 164 -32 41 -76 55 -178 55 l-90 0 0 -175z m199 120 c48 -24 56 -81 16
-120 -21 -22 -33 -25 -95 -25 l-70 0 0 73 c0 41 3 77 7 80 12 13 114 7 142 -8z"/>
<path d="M823 395 c-98 -42 -95 -200 4 -242 45 -18 111 -13 149 12 23 15 24
19 12 31 -13 13 -18 13 -44 -1 -37 -19 -67 -19 -103 0 -26 13 -41 33 -41 56 0
5 47 9 105 9 l105 0 0 31 c0 89 -97 143 -187 104z m118 -54 c16 -16 29 -34 29
-40 0 -7 -32 -11 -90 -11 l-91 0 16 31 c29 55 91 64 136 20z"/>
<path d="M1110 275 l0 -135 25 0 c25 0 25 1 25 90 0 83 2 93 25 115 31 32 69
32 100 0 23 -22 25 -32 25 -115 0 -89 0 -90 25 -90 25 0 25 1 25 90 0 83 2 93
25 115 13 14 36 25 50 25 14 0 37 -11 50 -25 23 -22 25 -32 25 -115 l0 -90 26
0 26 0 -4 104 c-3 94 -6 108 -27 130 -41 43 -127 46 -167 7 -18 -18 -20 -18
-41 1 -33 30 -95 35 -138 10 -34 -21 -35 -21 -35 -2 0 13 -7 20 -20 20 -19 0
-20 -7 -20 -135z"/>
<path d="M1701 397 c-37 -13 -45 -25 -33 -45 7 -10 14 -10 38 3 56 29 113 11
128 -41 6 -21 3 -22 -68 -26 -55 -2 -80 -8 -95 -22 -22 -20 -27 -56 -11 -85
23 -43 120 -52 161 -15 18 16 19 16 19 -4 0 -15 6 -22 20 -22 19 0 20 7 20
101 0 55 -5 109 -10 120 -24 44 -100 60 -169 36z m139 -150 c0 -44 -75 -81
-119 -58 -23 13 -29 56 -8 64 6 3 38 6 70 6 40 1 57 -3 57 -12z"/>
<path d="M2000 275 l0 -135 25 0 c25 0 25 1 25 89 0 103 13 128 70 137 27 4
42 1 60 -14 23 -19 25 -28 28 -116 4 -86 6 -96 23 -96 17 0 19 8 19 101 0 111
-7 132 -50 154 -39 20 -78 19 -123 -4 -36 -18 -37 -18 -37 0 0 12 -7 19 -20
19 -19 0 -20 -7 -20 -135z"/>
<path d="M3433 395 c-98 -42 -95 -200 4 -242 45 -18 111 -13 149 12 23 15 24
19 12 31 -13 13 -18 13 -44 -1 -37 -19 -67 -19 -103 0 -26 13 -41 33 -41 56 0
5 47 9 105 9 l105 0 0 31 c0 89 -97 143 -187 104z m118 -54 c16 -16 29 -34 29
-40 0 -7 -32 -11 -90 -11 l-91 0 16 31 c29 55 91 64 136 20z"/>
<path d="M3740 397 c-13 -7 -31 -25 -40 -40 -13 -24 -13 -30 0 -54 9 -16 28
-31 45 -35 17 -4 49 -12 73 -18 31 -8 42 -16 42 -30 0 -38 -63 -51 -124 -26
-30 12 -34 12 -44 -5 -17 -27 19 -43 100 -44 57 0 70 3 92 24 50 47 28 99 -49
116 -79 17 -96 26 -93 48 4 31 48 44 101 30 31 -9 44 -9 49 0 13 20 9 25 -23
36 -42 15 -98 14 -129 -2z"/>
<path d="M4000 225 c0 -178 1 -185 20 -185 18 0 20 7 20 69 l0 69 38 -20 c78
-41 173 1 191 83 25 117 -84 205 -189 150 -39 -20 -40 -20 -40 -1 0 13 -7 20
-20 20 -19 0 -20 -7 -20 -185z m203 114 c29 -35 32 -69 11 -108 -54 -99 -199
-33 -164 75 7 19 24 41 38 49 35 20 92 12 115 -16z"/>
<path d="M4424 396 c-50 -22 -74 -61 -74 -122 0 -42 5 -59 26 -83 52 -63 152
-65 211 -6 29 29 33 39 33 88 0 41 -5 61 -22 82 -39 50 -112 68 -174 41z m106
-41 c37 -19 55 -69 39 -113 -24 -69 -122 -81 -159 -19 -24 39 -25 59 -4 98 24
47 73 60 124 34z"/>
<path d="M4720 275 c0 -125 1 -135 19 -135 16 0 19 10 23 91 4 85 6 94 32 115
29 25 65 31 96 14 25 -14 40 -70 40 -152 0 -61 2 -68 20 -68 19 0 20 7 20 95
0 64 -5 105 -14 124 -27 52 -105 67 -163 31 -33 -20 -33 -20 -33 0 0 13 -7 20
-20 20 -19 0 -20 -7 -20 -135z"/>
<path d="M5110 397 c-13 -7 -31 -25 -40 -40 -13 -24 -13 -30 0 -54 9 -16 28
-31 45 -35 17 -4 49 -12 73 -18 31 -8 42 -16 42 -30 0 -38 -63 -51 -124 -26
-30 12 -34 12 -44 -5 -17 -27 19 -43 100 -44 57 0 70 3 92 24 50 47 28 99 -49
116 -79 17 -96 26 -93 48 4 31 48 44 101 30 31 -9 44 -9 49 0 13 20 9 25 -23
36 -42 15 -98 14 -129 -2z"/>
<path d="M5415 394 c-64 -33 -88 -101 -60 -172 22 -54 84 -87 151 -79 52 5 90
33 73 53 -9 11 -17 10 -44 -3 -44 -21 -98 -11 -125 24 -11 14 -20 30 -20 34 0
5 50 9 111 9 l112 0 -6 36 c-8 50 -32 83 -72 100 -44 18 -83 18 -120 -2z m128
-55 c34 -42 24 -49 -68 -49 -54 0 -85 4 -85 11 0 6 14 24 30 41 27 26 36 30
68 25 20 -4 45 -16 55 -28z"/>
</g>
</svg>
